<svg width="86" height="20" viewBox="0 0 86 20" fill="none" xmlns="http://www.w3.org/2000/svg">
<path d="M24.525 9.80489C24.525 11.2668 24.251 12.4947 23.7029 13.5278C23.1549 14.5608 22.3915 15.321 21.452 15.8667C20.5125 16.4125 19.436 16.6659 18.2616 16.6659C17.0872 16.6659 15.9911 16.393 15.0515 15.8667C14.112 15.321 13.3487 14.5413 12.8006 13.5278C12.2526 12.5142 11.9785 11.2668 11.9785 9.82438C11.9785 8.38201 12.2526 7.13456 12.8006 6.10151C13.3487 5.08795 14.0925 4.30829 15.0515 3.76253C15.9911 3.21677 17.0676 2.96338 18.2616 2.96338C19.4555 2.96338 20.5125 3.23626 21.452 3.76253C22.3915 4.30829 23.1549 5.08795 23.7029 6.10151C24.251 7.11506 24.525 8.36252 24.525 9.82438V9.80489ZM21.6477 9.80489C21.6477 8.8693 21.5107 8.07015 21.2171 7.42693C20.9431 6.78371 20.5321 6.29642 20.0232 5.94558C19.5143 5.59473 18.9075 5.4388 18.2224 5.4388C17.5374 5.4388 16.9306 5.61422 16.4217 5.94558C15.9128 6.27693 15.5213 6.76422 15.2277 7.42693C14.9537 8.07015 14.7971 8.8693 14.7971 9.80489C14.7971 10.7405 14.9341 11.5396 15.2277 12.1828C15.5017 12.8261 15.9128 13.3134 16.4217 13.6642C16.9306 13.9956 17.5374 14.171 18.2224 14.171C18.9075 14.171 19.5143 13.9956 20.0232 13.6642C20.5321 13.3328 20.9235 12.8456 21.2171 12.1828C21.4912 11.5396 21.6477 10.7405 21.6477 9.80489Z" fill="#0011FF"/>
<path d="M37.8348 3.13879V16.4905H35.3882L29.5553 8.08963H29.4575V16.4905H26.6194V3.13879H29.1052L34.8988 11.5396H35.0163V3.13879H37.8348Z" fill="#0011FF"/>
<path d="M46.7604 16.4905H43.7266L48.3655 3.13879H52.0257L56.6449 16.4905H53.6111L50.2445 6.17947H50.1466L46.78 16.4905H46.7604ZM46.5843 11.2278H53.7677V13.4303H46.5843V11.2278Z" fill="#0011FF"/>
<path d="M61.0881 3.13879V16.4905H58.25V3.13879H61.0881Z" fill="#0011FF"/>
<path d="M63.417 16.4905V3.13879H68.7018C69.7196 3.13879 70.5808 3.31422 71.305 3.68456C72.0292 4.0354 72.5773 4.54218 72.9492 5.20489C73.3211 5.8676 73.5168 6.62777 73.5168 7.50489C73.5168 8.382 73.3211 9.16166 72.9492 9.78539C72.5773 10.4091 72.0096 10.9159 71.2854 11.2473C70.5612 11.5786 69.6804 11.754 68.6431 11.754H65.1003V9.49302H68.1929C68.7409 9.49302 69.1911 9.41505 69.5434 9.27861C69.8957 9.12268 70.1698 8.90827 70.3459 8.6159C70.5221 8.32353 70.6004 7.95319 70.6004 7.50489C70.6004 7.05658 70.5025 6.68624 70.3459 6.37438C70.1698 6.06252 69.8957 5.84811 69.5434 5.67269C69.1911 5.51676 68.7213 5.43879 68.1929 5.43879H66.2747V16.4905H63.4366H63.417ZM70.6591 10.4091L73.9866 16.4905H70.8548L67.5861 10.4091H70.6395H70.6591Z" fill="#0011FF"/>
<path d="M80.5636 17.1141C80.3483 17.309 79.9176 17.6403 79.8002 17.8937C79.3696 18.7514 80.1721 19.609 81.0333 19.5895C81.8358 19.4141 83.2451 17.7378 83.6953 17.0361C85.085 14.892 85.7896 12.9624 85.9462 10.409C86.1419 6.92002 84.8697 3.33359 82.3056 0.897154C81.875 0.487832 81.4248 -0.018946 80.7789 0.000545458C79.6436 0.0785114 79.35 1.34546 80.133 2.02766C84.5761 5.92596 84.7718 12.9624 80.544 17.0946L80.5636 17.1141Z" fill="#0011FF"/>
<path d="M77.1378 14.7557C77.2552 15.4184 77.7641 15.7497 78.41 15.7887C79.0755 15.6523 79.7606 14.7557 80.152 14.1709C82.2072 11.1303 81.8745 6.37434 78.8406 4.07434C78.6449 3.9379 78.41 3.87943 78.1751 3.89892C77.4509 3.99638 77.0595 4.63959 77.1378 5.34129C77.1965 5.86756 77.5684 5.98451 77.9011 6.31586C79.6431 8.0701 79.5648 11.715 77.8032 13.3913C77.3531 13.8201 77.0203 14.093 77.1378 14.7557Z" fill="#0011FF"/>
<path d="M5.40227 2.49556C5.61758 2.30064 6.04819 1.96929 6.16563 1.7159C6.59624 0.858275 5.79374 0.0201416 4.93252 0.0201416C4.13001 0.195565 2.72074 1.87183 2.27055 2.57353C0.880849 4.71759 0.156639 6.62775 0.0196258 9.18114C-0.176107 12.6701 1.09616 16.2565 3.66025 18.693C4.09087 19.1023 4.54105 19.6091 5.18697 19.5896C6.32222 19.5116 6.61582 18.2447 5.83289 17.5625C1.37018 13.6642 1.17445 6.62775 5.40227 2.49556Z" fill="#0011FF"/>
<path d="M8.82722 4.8735C8.70978 4.21079 8.20088 3.87944 7.55496 3.84045C6.88947 3.97689 6.2044 4.8735 5.81294 5.45825C3.75775 8.49892 4.09049 13.2548 7.12435 15.5548C7.32008 15.6913 7.55496 15.7497 7.78984 15.7303C8.51405 15.6328 8.90551 14.9896 8.82722 14.2879C8.7685 13.7616 8.39661 13.6447 8.06386 13.3133C6.32184 11.5591 6.40014 7.91417 8.16173 6.23791C8.61192 5.80909 8.94466 5.53621 8.82722 4.8735Z" fill="#0011FF"/>
</svg>
