<svg width="41" height="38" viewBox="0 0 41 38" fill="none" xmlns="http://www.w3.org/2000/svg">
<g clip-path="url(#clip0_269_343)">
<path d="M0 32.8373C0.0349829 34.2967 1.29437 34.0778 2.29138 34.0778H4.60026V20.6327C4.60026 16.2362 5.00256 13.591 7.32893 9.7782C7.81869 10.2343 8.8157 11.1647 9.218 11.6937C11.9642 7.3519 16.302 5.23572 21.1647 5.34518C24.663 5.67355 27.619 6.98704 30.1203 9.61402C30.68 10.1978 31.4671 10.9822 31.8695 11.6937C32.3242 11.1829 33.0764 10.4167 33.5836 9.94239C35.6476 13.3903 36.3997 15.4335 36.3997 19.7024V32.9285C36.3997 33.2568 36.3648 33.9318 36.3997 34.2237C37.5017 34.242 38.6037 34.2237 39.6881 34.2237C41.035 34.2237 41 33.2204 41 32.144V25.3029C41 23.7523 39.933 23.88 38.7611 23.88V20.2314C38.7611 19.2463 38.7611 18.3524 38.6911 17.3673C37.8865 7.46135 29.648 0 20.1852 0H19.8353C10.7398 0.456073 3.13097 7.84446 2.34386 17.4037C2.2564 18.4618 2.27389 19.3557 2.27389 20.4321V23.8617C0.244881 23.8435 0 23.9712 0 25.9962V31.013C0 31.615 0 32.2352 0 32.8373Z" fill="#0011FF"/>
<path d="M8.43086 17.6045C6.87412 17.6227 5.64972 18.845 5.64972 20.4686V34.9535C5.64972 36.723 6.78666 38.0913 8.58829 38C10.4424 38.0183 11.2995 36.4129 11.317 34.6616V21.5632C11.317 20.6328 11.4219 19.7571 10.9147 18.9544C10.3549 18.0788 9.46286 17.5497 8.44835 17.6045H8.43086Z" fill="#0011FF"/>
<path d="M35.3328 20.2679C35.3153 18.8085 33.8285 17.3673 32.4117 17.5862C31.6071 17.6227 31.0299 17.9328 30.4701 18.5349C29.5956 19.4653 29.753 20.6146 29.753 21.8003V35.3001C29.7705 36.9785 31.3447 38.0365 32.8315 38.0001C35.4377 37.3798 35.3328 35.8656 35.3328 33.4576V21.4172C35.3328 21.0341 35.3328 20.6693 35.3328 20.2862V20.2679Z" fill="#0011FF"/>
<path d="M22.494 19.2827C21.602 19.4652 21.3921 21.3989 21.1647 22.2381L20.4126 24.9745C20.1677 25.8137 19.9053 26.6711 19.6954 27.5285L17.9463 20.8334C17.7539 20.0307 17.6489 19.1733 16.6169 19.2645C16.0047 19.3922 15.8123 19.6658 15.6549 20.2861L14.7978 23.5516C14.5704 24.3908 14.2381 25.5036 14.0632 26.3063C13.8008 26.288 13.6259 26.288 13.346 26.3063C13.346 27.1454 13.346 28.0029 13.346 28.842C15.8473 28.842 15.5849 29.3346 16.3196 26.7259C16.407 26.3428 16.5469 25.8684 16.6169 25.5036C16.7394 26.0144 16.8443 26.5252 16.9667 27.036L17.9288 31.1589C18.1737 32.1987 18.2786 34.3149 19.7479 34.0413C20.7274 33.8588 20.7799 32.746 21.0073 31.9251C21.3571 30.6846 21.7594 29.4441 22.0917 28.2035L22.494 26.7259C22.5815 26.4157 22.6865 25.9961 22.8089 25.7043C22.8789 26.0691 23.0363 26.6346 23.1412 26.9995C23.6835 29.0062 23.4911 28.8603 25.5376 28.8603H27.7765V26.3245H25.3452C24.9079 24.555 24.4706 22.7854 24.0333 20.9976C23.8059 20.0854 23.666 19.0456 22.4591 19.301L22.494 19.2827Z" fill="#0011FF"/>
</g>
<defs>
<clipPath id="clip0_269_343">
<rect width="41" height="38" fill="white"/>
</clipPath>
</defs>
</svg>
