<svg width="44" height="47" viewBox="0 0 44 47" fill="none" xmlns="http://www.w3.org/2000/svg">
<path d="M22.8063 0.0153148C23.542 0.245037 24.2927 0.398185 24.9834 0.719797C27.0405 1.654 28.4969 3.308 29.6981 5.19172C30.0885 5.789 30.4338 6.43223 30.7642 7.07545C30.9143 7.38174 31.0795 7.47363 31.4098 7.45832C33.4218 7.35111 35.4188 7.45832 37.3106 8.19343C38.0914 8.48441 38.8121 8.95917 39.5629 9.32673C39.7281 9.4033 39.9533 9.46456 40.1184 9.41862C41.5448 9.05106 42.9562 9.64834 43.6319 10.9501C44.3076 12.2519 43.9923 13.7987 42.8662 14.8094C42.746 14.9166 42.6259 15.1004 42.6259 15.2382C42.6259 17.7958 41.7551 20.1084 40.4488 22.2218C39.9683 22.9875 39.9683 23.4929 40.4488 24.2587C41.5899 26.0505 42.3857 28.0108 42.5508 30.1549C42.6109 30.9666 42.7761 31.6098 43.3616 32.253C44.2175 33.1872 44.1725 34.7187 43.4668 35.7907C42.746 36.8781 41.4397 37.3682 40.1935 37.0466C40.0133 37.0006 39.7731 37.0159 39.638 37.1078C37.9413 38.3024 36.0194 38.8231 34.0074 38.9762C33.1215 39.0528 32.2356 39.0222 31.3497 39.0068C31.0645 39.0068 30.9293 39.0834 30.8092 39.3438C29.9233 41.1203 28.8573 42.759 27.3858 44.1067C23.8573 47.3228 19.6832 47.2156 16.3198 43.8157C15.0586 42.5446 14.0526 41.059 13.2718 39.451C13.0916 39.0987 12.8964 39.0068 12.5211 39.0222C10.2088 39.16 7.94153 38.915 5.7944 37.9348C5.70431 37.8889 5.59921 37.8582 5.50912 37.797C4.74336 37.3069 4.02264 36.9393 3.00163 37.1078C1.77041 37.3069 0.614265 36.3268 0.193848 35.1016C-0.226569 33.8917 0.133789 32.544 1.09474 31.6864C1.22988 31.5792 1.36501 31.3801 1.36501 31.2269C1.36501 28.8838 2.13077 26.7856 3.21184 24.7794C3.43706 24.3659 3.66229 23.9677 3.93256 23.5848C4.11273 23.3245 4.11273 23.1407 3.93256 22.865C2.8665 21.211 2.01065 19.4651 1.63528 17.5048C1.48513 16.785 1.48513 16.0346 1.38002 15.3148C1.34999 15.131 1.27492 14.9166 1.13979 14.7941C-0.00134521 13.814 -0.331673 12.2519 0.359012 10.9501C1.01967 9.66365 2.44608 9.05106 3.8725 9.41862C4.02264 9.46456 4.23285 9.44924 4.35297 9.35736C6.13974 8.10154 8.16675 7.59615 10.2839 7.443C11.0646 7.39706 11.8604 7.41237 12.6412 7.443C12.9415 7.443 13.0916 7.36643 13.2118 7.09076C14.0976 5.29893 15.1937 3.66024 16.6652 2.29722C17.9414 1.1333 19.3679 0.306296 21.0946 0.0612593C21.1396 0.0612593 21.1696 0.0153148 21.1997 0H22.8063V0.0153148ZM11.2899 23.2326C11.455 25.1316 11.5901 27.0153 11.7703 28.8838C11.7853 29.0828 11.9205 29.3126 12.0706 29.4351C15.0135 31.7783 18.2267 33.662 21.6802 35.1016C21.8453 35.1781 22.1006 35.1781 22.2657 35.1016C25.7642 33.662 28.9924 31.7629 31.9654 29.3891C32.0855 29.2973 32.2056 29.1135 32.2206 28.9603C32.7461 25.1469 32.7461 21.3489 32.2206 17.5355C32.1906 17.3517 32.0705 17.1373 31.9353 17.0301C28.9924 14.6716 25.7792 12.7879 22.3258 11.3636C22.1456 11.287 21.8904 11.287 21.7102 11.3636C18.2267 12.8032 15.0135 14.6869 12.0556 17.0454C11.9205 17.1526 11.7853 17.3823 11.7703 17.5508C11.5901 19.4498 11.44 21.3335 11.2899 23.2326ZM29.2927 7.61147C29.2777 7.51958 29.2777 7.47363 29.2627 7.443C28.4369 5.85026 27.4459 4.39535 26.0945 3.23143C23.7222 1.17924 20.9745 1.01078 18.512 2.7873C16.8303 3.99717 15.6742 5.66648 14.7433 7.51958C14.7433 7.53489 14.7433 7.58084 14.7583 7.62678C17.1757 7.97902 19.533 8.60693 21.8303 9.47987C21.9504 9.52582 22.1306 9.5105 22.2507 9.47987C24.533 8.60693 26.8753 7.99434 29.3227 7.62678L29.2927 7.61147ZM29.3678 38.915C29.2477 38.8537 29.2326 38.8384 29.2026 38.8384C26.8152 38.4708 24.4879 37.8582 22.2207 37.0006C22.0705 36.9393 21.8753 36.97 21.7252 37.0312C21.1096 37.2303 20.509 37.4907 19.8784 37.6591C18.1817 38.1186 16.47 38.5321 14.7583 38.9609C14.7583 38.9456 14.7583 39.0068 14.7883 39.0528C15.6292 40.6455 16.6201 42.1311 18.0165 43.2797C19.9685 44.9031 22.1156 45.4544 24.503 44.3058C25.9294 43.6166 27.0255 42.5139 27.9414 41.2275C28.4669 40.4924 28.9173 39.696 29.4128 38.9303L29.3678 38.915ZM12.3559 37.4907C12.2808 37.2763 12.2208 37.1231 12.1607 36.97C11.3799 34.8718 10.8244 32.7278 10.434 30.5224C10.389 30.2621 10.2238 29.9558 10.0286 29.772C8.3169 28.3018 6.74034 26.6784 5.32894 24.9019C5.25387 24.81 5.16378 24.7181 5.07369 24.6262C3.84247 26.3568 2.77641 29.4963 2.92656 30.9666C4.15778 30.9972 5.13375 31.5179 5.71933 32.6512C6.30491 33.7998 6.13974 34.9178 5.43404 36.0051C7.58117 37.3375 9.89347 37.5826 12.3559 37.506V37.4907ZM5.05867 21.8389C5.05867 21.8389 5.16378 21.7777 5.17879 21.7624C6.66527 19.848 8.34693 18.1327 10.1787 16.5706C10.3139 16.4634 10.404 16.249 10.434 16.0652C10.7493 14.059 11.2448 12.114 11.9205 10.1997C12.0556 9.80149 12.1907 9.41862 12.3559 8.95917C9.89347 8.91323 7.56616 9.14295 5.43404 10.4753C6.13974 11.5474 6.30491 12.65 5.73434 13.7987C5.14876 14.9626 4.15778 15.468 2.88151 15.5139C3.06169 17.8418 3.79742 19.9246 5.05867 21.8389ZM38.9473 24.6109C38.9473 24.6109 38.8422 24.6875 38.8121 24.7181C37.3106 26.6325 35.644 28.3477 33.7972 29.9098C33.677 30.017 33.602 30.2008 33.5719 30.3693C33.1816 31.9927 32.8212 33.6313 32.4158 35.2394C32.2206 35.9745 31.9353 36.6943 31.6801 37.4754C34.1275 37.5366 36.4548 37.3069 38.5869 35.9592C37.8512 34.8718 37.7161 33.7539 38.2866 32.6206C38.8722 31.472 39.8782 30.9819 41.1244 30.9206C40.9292 28.6081 40.2235 26.5253 38.9473 24.5956V24.6109ZM31.7251 8.97449C31.7251 8.97449 31.6951 9.08169 31.6951 9.11232C31.7401 9.23484 31.7852 9.37267 31.8302 9.49519C32.611 11.578 33.1816 13.7068 33.5419 15.9121C33.602 16.249 33.6921 16.4941 33.9473 16.7238C35.7041 18.1787 37.2806 19.8174 38.677 21.6245C38.7521 21.7164 38.7971 21.8236 38.8722 21.9615C40.1935 19.9552 40.9292 17.8571 41.1094 15.5445C39.8482 15.5139 38.8572 14.9932 38.2716 13.8599C37.671 12.7113 37.8362 11.5933 38.5569 10.506C36.4248 9.17358 34.0975 8.92854 31.7101 8.9898L31.7251 8.97449ZM24.1426 35.9898C24.2927 36.0511 24.3528 36.097 24.4129 36.1123C26.1996 36.5258 27.9864 36.924 29.7732 37.3528C30.0585 37.4141 30.1035 37.2303 30.1636 37.0466C30.614 35.6376 31.0645 34.2439 31.5149 32.835C31.635 32.4368 31.7101 32.008 31.8302 31.472C29.3678 33.2944 26.8603 34.7493 24.1426 36.0051V35.9898ZM12.1757 14.8554C12.1757 14.8554 12.2508 14.9013 12.2808 14.932C14.6382 13.1861 17.1457 11.7312 19.8033 10.4907C19.7282 10.4141 19.7132 10.3834 19.6832 10.3834C17.8964 9.78617 16.0646 9.37267 14.2027 9.12763C14.0976 9.12763 13.9024 9.28078 13.8424 9.4033C13.5121 10.2609 13.1967 11.1186 12.9265 11.9915C12.6412 12.941 12.416 13.9059 12.1607 14.8554H12.1757ZM12.2658 31.5179C12.2658 31.5179 12.2208 31.6251 12.2358 31.6557C12.6112 33.5395 13.1517 35.3619 13.8874 37.1384C13.9325 37.2456 14.1577 37.3528 14.2778 37.3222C15.3439 37.1384 16.4099 36.9547 17.461 36.7249C18.2417 36.5565 19.0075 36.2961 19.7883 36.0664C17.1306 34.734 14.6232 33.2638 12.2658 31.5179ZM24.2327 10.3528V10.506C26.8753 11.7312 29.3678 13.2014 31.7401 14.932C31.7551 14.8554 31.7702 14.8247 31.7702 14.7941C31.3948 12.9104 30.8392 11.0879 30.1185 9.31141C30.0735 9.20421 29.8783 9.11232 29.7582 9.12763C29.0975 9.21952 28.4369 9.2961 27.7912 9.44924C26.605 9.72491 25.4189 10.0465 24.2327 10.3375V10.3528ZM33.9323 27.7505C35.4939 26.3415 36.8302 24.856 38.0163 23.2326C36.8152 21.5939 35.4788 20.1237 33.9173 18.7147C34.2026 21.7777 34.2026 24.7028 33.9173 27.7505H33.9323ZM5.98959 23.2326C7.2058 24.8713 8.52711 26.3415 10.0887 27.7351C9.80338 24.6875 9.80338 21.747 10.0887 18.7147C8.52711 20.1237 7.2058 21.5939 6.00461 23.2326H5.98959ZM1.53017 34.0755C1.53017 34.9331 2.22086 35.6223 3.06169 35.607C3.88751 35.607 4.54817 34.9025 4.56318 34.0755C4.56318 33.2332 3.8725 32.5134 3.04668 32.5134C2.20584 32.5134 1.53017 33.2178 1.53017 34.0755ZM1.53017 12.3897C1.53017 13.2473 2.20584 13.9518 3.04668 13.9365C3.8725 13.9365 4.5782 13.2014 4.56318 12.3744C4.56318 11.5321 3.8725 10.8582 3.06169 10.8429C2.22086 10.8429 1.54519 11.5167 1.54519 12.3897H1.53017ZM42.4758 12.3744C42.4758 11.5167 41.7851 10.8276 40.9443 10.8582C40.1184 10.8735 39.4578 11.5627 39.4578 12.405C39.4578 13.2473 40.1635 13.9671 40.9893 13.9518C41.8301 13.9518 42.4908 13.2473 42.4908 12.3744H42.4758ZM42.4758 34.0602C42.4758 33.2025 41.7851 32.4981 40.9593 32.5134C40.1485 32.5134 39.4728 33.2025 39.4578 34.0448C39.4578 34.8872 40.1334 35.607 40.9743 35.607C41.8151 35.607 42.4908 34.9178 42.4908 34.0602H42.4758Z" fill="#0011FF"/>
<path d="M19.6947 26.5378C20.3164 26.8884 20.9988 27.361 21.5901 27.7574L23.2278 28.8093C23.4098 28.9312 23.7737 29.2361 23.986 29.1904C24.1983 29.1447 24.2589 28.9312 24.2589 28.7483C24.2589 28.4129 24.2589 28.0623 24.2589 27.7269V17.4214C24.2589 17.086 24.2134 16.8421 23.8192 16.8574C23.6827 16.9031 23.5463 17.0098 23.4249 17.086L20.2558 19.1136C20.0738 19.2203 19.8918 19.3423 19.7099 19.4642C19.7099 19.9825 19.7099 20.5161 19.7099 21.0192V26.2482C19.7099 26.2482 19.7099 26.4311 19.7099 26.5073L19.6947 26.5378Z" fill="#0011FF"/>
<path d="M26.8212 25.5316C26.8212 25.5316 26.6089 25.7145 26.5634 25.7908C26.4118 26.0957 26.6847 26.3853 26.988 26.3853C27.2609 26.3243 27.7462 25.745 27.8978 25.5011C28.3679 24.7541 28.6105 24.0986 28.6711 23.2144C28.7318 22.0101 28.3072 20.7752 27.4277 19.9368C27.2761 19.7996 27.1245 19.6166 26.9122 19.6319C26.5179 19.6624 26.4269 20.0892 26.6847 20.3331C28.2011 21.6747 28.2617 24.1138 26.8212 25.5316Z" fill="#0011FF"/>
<path d="M17.6325 26.3853H18.6788C18.7698 26.3853 18.876 26.3853 18.9669 26.3853V19.6318H17.7235C17.5264 19.6318 17.2989 19.6318 17.1018 19.6318C16.6772 19.7081 16.7531 20.1197 16.7531 20.4398V25.4553C16.7531 26.4158 16.7531 26.3853 17.6174 26.3853H17.6325Z" fill="#0011FF"/>
<path d="M25.6537 24.7236C25.6992 24.9523 25.866 25.0742 26.0783 25.0895C26.3057 25.0437 26.5484 24.7236 26.6697 24.5254C27.3672 23.4735 27.2611 21.8271 26.2148 21.0344C26.1541 20.9886 26.0631 20.9734 25.9873 20.9734C25.7295 21.0039 25.6082 21.2326 25.6385 21.4765C25.6689 21.6594 25.7902 21.7051 25.8963 21.8119C26.4877 22.4216 26.4725 23.6717 25.866 24.251C25.7144 24.4035 25.6082 24.4949 25.6385 24.7236H25.6537Z" fill="#0011FF"/>
</svg>
