<svg width="45" height="40" viewBox="0 0 45 40" fill="none" xmlns="http://www.w3.org/2000/svg">
<path d="M36.9655 39.7059H8.01744C3.59932 39.7059 0 36.02 0 31.4957V8.21019C0 3.68585 3.59932 0 8.01744 0H19.7195C21.0842 0 22.3806 0.593929 23.3017 1.62457L25.6387 4.29725C26.0652 4.78637 26.6793 5.06586 27.3275 5.08333L36.9996 5.20561C41.4007 5.20561 45 8.89146 45 13.4158V31.4957C45 36.02 41.4007 39.7059 36.9826 39.7059H36.9655ZM8.01744 2.25344C4.81046 2.25344 2.20053 4.92611 2.20053 8.21019V31.4957C2.20053 34.7798 4.81046 37.4524 8.01744 37.4524H36.9655C40.1725 37.4524 42.7824 34.7798 42.7824 31.4957V13.4158C42.7824 10.1317 40.1725 7.45905 36.9655 7.45905L27.2934 7.33677C26.0311 7.33677 24.837 6.76031 24.0011 5.81701L21.6641 3.14433C21.1694 2.58534 20.4701 2.25344 19.7195 2.25344H8.01744Z" fill="#0011FF"/>
<path d="M25.7437 30.8775H19.8347C16.4828 30.8775 13.7529 28.1119 13.7529 24.7162V18.7124C13.7529 15.3166 16.4828 12.551 19.8347 12.551H25.7437C29.0956 12.551 31.8255 15.3166 31.8255 18.7124V24.7162C31.8255 28.1119 29.0956 30.8775 25.7437 30.8775ZM19.8174 14.809C17.6923 14.809 15.9645 16.5594 15.9645 18.7124V24.7162C15.9645 26.8691 17.6923 28.6195 19.8174 28.6195H25.7264C27.8516 28.6195 29.5794 26.8691 29.5794 24.7162V18.7124C29.5794 16.5594 27.8516 14.809 25.7264 14.809H19.8174Z" fill="#0011FF"/>
<path d="M22.7897 26.8867C22.496 26.8867 22.2022 26.7642 21.9949 26.5542L19.0058 23.526C18.5739 23.0884 18.5739 22.3708 19.0058 21.9332C19.4378 21.4956 20.1462 21.4956 20.5781 21.9332L22.7724 24.1562L24.9667 21.9332C25.3986 21.4956 26.107 21.4956 26.539 21.9332C26.9709 22.3708 26.9709 23.0884 26.539 23.526L23.5499 26.5542C23.3426 26.7642 23.0488 26.8867 22.7551 26.8867H22.7897Z" fill="#0011FF"/>
<path d="M22.7897 26.8867C22.1677 26.8867 21.6666 26.379 21.6666 25.7489V17.6622C21.6666 17.032 22.1677 16.5244 22.7897 16.5244C23.4117 16.5244 23.9127 17.032 23.9127 17.6622V25.7489C23.9127 26.379 23.4117 26.8867 22.7897 26.8867Z" fill="#0011FF"/>
</svg>
