<svg width="85" height="104" viewBox="0 0 85 104" fill="none" xmlns="http://www.w3.org/2000/svg">
<path d="M42.4996 0L0 10.8498V62.1566C0 66.6259 2.04433 71.5344 6.0767 76.7449C9.78235 81.5329 15.0629 86.4526 21.7716 91.3668C29.8173 97.2601 37.9946 101.711 42.4996 104C47.0038 101.712 55.178 97.2625 63.2197 91.3732C69.9308 86.4574 75.2137 81.5377 78.9201 76.7489C82.9541 71.536 85 66.6275 85 62.1566V10.8498L42.4996 0ZM65.9166 38.3245L43.5955 60.806C43.5622 60.8508 43.5257 60.8939 43.4853 60.9346L37.7773 66.6834C37.549 66.9134 37.2492 67.0268 36.9502 67.0244H36.9463C36.6481 67.026 36.35 66.9126 36.1224 66.6834L30.4144 60.9346C30.3748 60.8939 30.3375 60.8516 30.305 60.8068H30.3042L19.0778 49.4994C18.6298 49.0481 18.6321 48.3158 19.0833 47.8669L24.8524 42.1349C25.2988 41.6909 26.0181 41.6933 26.4621 42.1405L36.9495 52.7036L58.572 30.9273C59.024 30.4713 59.7575 30.4713 60.2095 30.9273L65.9166 36.6753C66.3694 37.1305 66.3694 37.8693 65.9166 38.3245Z" fill="url(#paint0_linear_269_1396)"/>
<defs>
<linearGradient id="paint0_linear_269_1396" x1="42.5" y1="0" x2="42.5" y2="104" gradientUnits="userSpaceOnUse">
<stop stop-color="#004BD7"/>
<stop offset="1" stop-color="#002871"/>
</linearGradient>
</defs>
</svg>
