<svg width="112" height="74" viewBox="0 0 112 74" fill="none" xmlns="http://www.w3.org/2000/svg">
<path d="M17.1445 0.00273347C16.5624 -0.0146101 15.9835 0.0940145 15.4483 0.32102C14.913 0.548025 14.4342 0.887937 14.0455 1.31701C-4.67995 21.4145 -4.68196 52.5314 14.0403 72.6539C14.3921 73.0503 14.8205 73.373 15.3002 73.6033C15.78 73.8335 16.3014 73.9665 16.8338 73.9944C17.3662 74.0224 17.8989 73.9448 18.4005 73.7661C18.9022 73.5875 19.3627 73.3114 19.755 72.9541C20.1473 72.5968 20.4635 72.1656 20.685 71.6857C20.9064 71.2057 21.0287 70.6869 21.0446 70.1595C21.0605 69.6321 20.9698 69.107 20.7777 68.6148C20.5855 68.1227 20.2959 67.6735 19.9259 67.2937C3.98031 50.1555 3.98351 23.798 19.9259 6.68751C20.4583 6.13345 20.8171 5.43869 20.9591 4.68718C21.1011 3.93566 21.0201 3.15954 20.726 2.45258C20.4318 1.74562 19.9371 1.13806 19.3015 0.703324C18.666 0.268583 17.9168 0.0252527 17.1445 0.00273347ZM95.1367 0.00273347C95.003 -0.00218519 94.8691 -0.00046498 94.7356 0.0078875C93.9745 0.0526821 93.2422 0.311762 92.6249 0.754612C92.0077 1.19746 91.5311 1.80564 91.2514 2.50752C90.9718 3.20939 90.9006 3.97574 91.0464 4.71629C91.1921 5.45685 91.5487 6.14077 92.0741 6.68751C108.016 23.798 108.02 50.1555 92.0741 67.2937C91.704 67.6735 91.4144 68.1227 91.2223 68.6148C91.0302 69.107 90.9394 69.6321 90.9553 70.1595C90.9712 70.6869 91.0935 71.2057 91.315 71.6857C91.5364 72.1656 91.8526 72.5968 92.2449 72.9541C92.6372 73.3114 93.0977 73.5875 93.5994 73.7661C94.1011 73.9448 94.6338 74.0224 95.1662 73.9944C95.6986 73.9665 96.22 73.8335 96.6997 73.6033C97.1794 73.373 97.6078 73.0503 97.9597 72.6539C116.682 52.5314 116.68 21.4145 97.9545 1.31701C97.5975 0.922604 97.1642 0.603072 96.6802 0.377324C96.1962 0.151576 95.6713 0.0241984 95.1367 0.00273347ZM76.0006 13.6197C75.2042 13.6117 74.4235 13.8392 73.7585 14.2729C73.0935 14.7067 72.5745 15.327 72.268 16.0544C71.9614 16.7818 71.8812 17.5832 72.0377 18.356C72.1942 19.1288 72.5802 19.8377 73.1464 20.3921C82.322 29.6533 82.322 44.3228 73.1464 53.584C72.7672 53.9525 72.4661 54.3921 72.2606 54.8771C72.055 55.3621 71.9492 55.8827 71.9493 56.4086C71.9493 56.9345 72.0553 57.4552 72.261 57.9401C72.4667 58.425 72.7679 58.8645 73.1472 59.233C73.5264 59.6014 73.976 59.8914 74.4698 60.0859C74.9636 60.2805 75.4915 60.3757 76.0229 60.3661C76.5543 60.3565 77.0784 60.2422 77.5646 60.0299C78.0509 59.8176 78.4895 59.5116 78.8549 59.1297C91.0133 46.8578 91.0133 27.1182 78.8549 14.8463C78.4861 14.4636 78.0435 14.1578 77.5532 13.9471C77.063 13.7364 76.5351 13.6251 76.0006 13.6197ZM35.8795 13.6248C34.8424 13.6656 33.8619 14.1036 33.1451 14.8463C20.9866 27.1182 20.9866 46.8578 33.1451 59.1297C33.5104 59.5116 33.9491 59.8176 34.4353 60.0299C34.9216 60.2422 35.4457 60.3565 35.977 60.3661C36.5084 60.3757 37.0364 60.2805 37.5302 60.0859C38.0239 59.8914 38.4736 59.6014 38.8528 59.233C39.232 58.8645 39.5333 58.425 39.739 57.9401C39.9447 57.4552 40.0506 56.9345 40.0507 56.4086C40.0508 55.8827 39.9449 55.3621 39.7394 54.8771C39.5339 54.3921 39.2327 53.9525 38.8536 53.584C29.678 44.3228 29.678 29.6533 38.8536 20.3921C39.4262 19.8305 39.8139 19.1108 39.9661 18.3274C40.1182 17.5439 40.0275 16.7333 39.706 16.0017C39.3845 15.2701 38.8471 14.6517 38.1643 14.2276C37.4815 13.8034 36.6851 13.5933 35.8795 13.6248ZM56 29.0714C53.8782 29.0714 51.8433 29.9055 50.3429 31.3902C48.8426 32.8748 47.9997 34.8884 47.9997 36.988C47.9997 39.0876 48.8426 41.1012 50.3429 42.5859C51.8433 44.0705 53.8782 44.9046 56 44.9046C58.1218 44.9046 60.1567 44.0705 61.657 42.5859C63.1574 41.1012 64.0002 39.0876 64.0002 36.988C64.0002 34.8884 63.1574 32.8748 61.657 31.3902C60.1567 29.9055 58.1218 29.0714 56 29.0714Z" fill="#0011FF"/>
</svg>
