<svg width="169" height="35" viewBox="0 0 169 35" fill="none" xmlns="http://www.w3.org/2000/svg">
<path d="M104.841 10.1367C101.96 8.99458 98.8061 8.95711 95.9622 10.0282C94.1236 10.7206 92.5485 12.0436 91.4075 13.855L86.4094 21.7799C85.8662 22.6416 85.3789 23.2592 84.8317 23.7785C83.7186 24.8354 82.0344 24.8431 80.912 23.7966C80.0613 23.0034 79.4595 22.0396 78.8218 21.0189L74.508 14.1146C73.2698 12.1328 71.7187 10.8059 69.7682 10.0579C66.7486 8.90026 63.3482 9.00233 60.4364 10.3382C56.7884 12.0113 54.5223 15.749 54.521 20.0926L54.5183 34.4773H60.2447L60.2527 20.0964C60.254 17.2141 62.0527 15.0461 64.7275 14.7025C66.8018 14.435 68.6618 15.2645 69.7043 16.9208L74.6931 24.8522C75.4267 26.0188 76.32 27.3431 77.6381 28.3133C79.6126 29.7655 82.1196 30.3495 84.5148 29.9154C86.8847 29.4864 88.8911 28.1493 90.1626 26.1506L93.6656 20.6468C93.9425 20.2114 94.2088 19.7696 94.4657 19.3419C95.1048 18.2786 95.7093 17.2748 96.4935 16.32C97.3203 15.3136 98.5997 14.7012 100.004 14.6392C101.494 14.572 102.923 15.1107 103.917 16.1159C105.05 17.2619 105.299 18.6326 105.454 19.9388V33.6724H105.455C105.455 33.737 105.455 33.8326 105.455 33.9243C105.455 34.1758 105.472 34.324 105.506 34.3688L105.586 34.4773H111.221V20.046C111.221 15.4932 108.776 11.6974 104.84 10.138L104.841 10.1367Z" fill="white"/>
<path d="M104.841 10.1367C101.96 8.99458 98.8061 8.95711 95.9622 10.0282C94.1236 10.7206 92.5485 12.0436 91.4075 13.855L86.4094 21.7799C85.8662 22.6416 85.3789 23.2592 84.8317 23.7785C83.7186 24.8354 82.0344 24.8431 80.912 23.7966C80.0613 23.0034 79.4595 22.0396 78.8218 21.0189L74.508 14.1146C73.2698 12.1328 71.7187 10.8059 69.7682 10.0579C66.7486 8.90026 63.3482 9.00233 60.4364 10.3382C56.7884 12.0113 54.5223 15.749 54.521 20.0926L54.5183 34.4773H60.2447L60.2527 20.0964C60.254 17.2141 62.0527 15.0461 64.7275 14.7025C66.8018 14.435 68.6618 15.2645 69.7043 16.9208L74.6931 24.8522C75.4267 26.0188 76.32 27.3431 77.6381 28.3133C79.6126 29.7655 82.1196 30.3495 84.5148 29.9154C86.8847 29.4864 88.8911 28.1493 90.1626 26.1506L93.6656 20.6468C93.9425 20.2114 94.2088 19.7696 94.4657 19.3419C95.1048 18.2786 95.7093 17.2748 96.4935 16.32C97.3203 15.3136 98.5997 14.7012 100.004 14.6392C101.494 14.572 102.923 15.1107 103.917 16.1159C105.05 17.2619 105.299 18.6326 105.454 19.9388V33.6724H105.455C105.455 33.737 105.455 33.8326 105.455 33.9243C105.455 34.1758 105.472 34.324 105.506 34.3688L105.586 34.4773H111.221V20.046C111.221 15.4932 108.776 11.6974 104.84 10.138L104.841 10.1367Z" fill="url(#paint0_linear_2003_168)" fill-opacity="0.3"/>
<path d="M168.22 30.9347C167.912 30.1634 167.264 29.5678 166.441 29.3017C164.656 28.7229 163.102 27.8482 161.553 26.5524L157.238 22.9388C161.395 20.8497 165.365 16.5694 167.344 13.3911C167.759 12.7232 167.887 11.9235 167.695 11.1961C167.522 10.5398 167.105 9.99714 166.522 9.66899C165.236 8.94678 163.541 9.36667 162.662 10.6263C160.767 13.3446 158.164 16.6637 154.84 18.2102C152.605 19.2502 150.165 18.9569 148.311 17.4234L143.434 13.3873C141.356 11.6664 138.509 9.30982 135.831 9.25297C134.45 9.22326 133.34 10.1173 133.197 11.3783C133.048 12.7051 133.602 13.5281 135.177 14.3123C136.966 15.2038 137.978 15.9673 139.115 16.8743L143.946 20.7243C140.054 22.8173 136.374 26.7229 134.19 29.7435C133.04 31.3352 133.024 32.9244 134.149 33.8908C134.594 34.2732 135.15 34.476 135.743 34.476C135.853 34.476 135.964 34.4696 136.076 34.4553C137.01 34.3378 137.912 33.737 138.549 32.8081C139.708 31.1208 143.814 25.5563 147.99 24.8057C149.631 24.5111 151.342 24.971 152.685 26.0666L158.604 30.8947C160.115 32.1272 161.422 32.9631 162.838 33.6065C163.858 34.069 164.895 34.3119 165.757 34.2913C166.826 34.2641 167.627 33.8404 168.075 33.0639C168.453 32.4063 168.505 31.6518 168.22 30.936V30.9347Z" fill="white"/>
<path d="M168.22 30.9347C167.912 30.1634 167.264 29.5678 166.441 29.3017C164.656 28.7229 163.102 27.8482 161.553 26.5524L157.238 22.9388C161.395 20.8497 165.365 16.5694 167.344 13.3911C167.759 12.7232 167.887 11.9235 167.695 11.1961C167.522 10.5398 167.105 9.99714 166.522 9.66899C165.236 8.94678 163.541 9.36667 162.662 10.6263C160.767 13.3446 158.164 16.6637 154.84 18.2102C152.605 19.2502 150.165 18.9569 148.311 17.4234L143.434 13.3873C141.356 11.6664 138.509 9.30982 135.831 9.25297C134.45 9.22326 133.34 10.1173 133.197 11.3783C133.048 12.7051 133.602 13.5281 135.177 14.3123C136.966 15.2038 137.978 15.9673 139.115 16.8743L143.946 20.7243C140.054 22.8173 136.374 26.7229 134.19 29.7435C133.04 31.3352 133.024 32.9244 134.149 33.8908C134.594 34.2732 135.15 34.476 135.743 34.476C135.853 34.476 135.964 34.4696 136.076 34.4553C137.01 34.3378 137.912 33.737 138.549 32.8081C139.708 31.1208 143.814 25.5563 147.99 24.8057C149.631 24.5111 151.342 24.971 152.685 26.0666L158.604 30.8947C160.115 32.1272 161.422 32.9631 162.838 33.6065C163.858 34.069 164.895 34.3119 165.757 34.2913C166.826 34.2641 167.627 33.8404 168.075 33.0639C168.453 32.4063 168.505 31.6518 168.22 30.936V30.9347Z" fill="url(#paint1_linear_2003_168)" fill-opacity="0.3"/>
<path d="M36.7445 9.34341C32.6691 9.20388 28.7095 9.25039 25.0388 9.32145C22.1936 9.377 19.5335 10.5075 17.5483 12.5049C15.5872 14.4777 14.5021 17.0629 14.4941 19.7851L14.4502 34.4747H20.1339L20.1805 20.0616C20.1912 17.1159 22.6183 14.6521 25.5927 14.5694C28.8187 14.479 32.3109 14.4183 35.9816 14.5862C38.8281 14.7167 41.1581 17.143 41.1754 19.9944L41.2566 34.4734H46.9537L46.9404 20.0512C46.9337 14.1444 42.5494 9.53979 36.7418 9.34212L36.7445 9.34341Z" fill="white"/>
<path d="M36.7445 9.34341C32.6691 9.20388 28.7095 9.25039 25.0388 9.32145C22.1936 9.377 19.5335 10.5075 17.5483 12.5049C15.5872 14.4777 14.5021 17.0629 14.4941 19.7851L14.4502 34.4747H20.1339L20.1805 20.0616C20.1912 17.1159 22.6183 14.6521 25.5927 14.5694C28.8187 14.479 32.3109 14.4183 35.9816 14.5862C38.8281 14.7167 41.1581 17.143 41.1754 19.9944L41.2566 34.4734H46.9537L46.9404 20.0512C46.9337 14.1444 42.5494 9.53979 36.7418 9.34212L36.7445 9.34341Z" fill="url(#paint2_linear_2003_168)" fill-opacity="0.3"/>
<path d="M124.991 10.0333C124.902 9.68578 124.563 9.31241 124.176 9.31241H120.139C119.76 9.31241 119.276 9.69999 119.276 10.1367L119.271 34.4773H125.003L124.999 10.0656L124.991 10.0346V10.0333Z" fill="white"/>
<path d="M124.991 10.0333C124.902 9.68578 124.563 9.31241 124.176 9.31241H120.139C119.76 9.31241 119.276 9.69999 119.276 10.1367L119.271 34.4773H125.003L124.999 10.0656L124.991 10.0346V10.0333Z" fill="url(#paint3_linear_2003_168)" fill-opacity="0.3"/>
<path d="M122.015 0.0167168C121.071 0.0683954 120.223 0.457277 119.628 1.11101C119.024 1.77508 118.728 2.65103 118.793 3.57996C118.851 4.40294 119.265 5.19362 119.929 5.74917C120.555 6.27241 121.344 6.55277 122.176 6.55277C122.274 6.55277 122.371 6.54889 122.469 6.54114C124.369 6.39257 125.746 4.85642 125.601 3.04379C125.458 1.24538 123.883 -0.0827645 122.014 0.0180088L122.015 0.0167168Z" fill="white"/>
<path d="M122.015 0.0167168C121.071 0.0683954 120.223 0.457277 119.628 1.11101C119.024 1.77508 118.728 2.65103 118.793 3.57996C118.851 4.40294 119.265 5.19362 119.929 5.74917C120.555 6.27241 121.344 6.55277 122.176 6.55277C122.274 6.55277 122.371 6.54889 122.469 6.54114C124.369 6.39257 125.746 4.85642 125.601 3.04379C125.458 1.24538 123.883 -0.0827645 122.014 0.0180088L122.015 0.0167168Z" fill="url(#paint4_linear_2003_168)" fill-opacity="0.3"/>
<path d="M5.2553 0.51793C4.0171 -0.241746 2.41409 -0.15906 1.26509 0.72206C0.128071 1.59414 -0.301972 3.12641 0.219937 4.44809C0.707231 5.6845 1.99337 6.53074 3.41664 6.5527C3.43528 6.5527 3.45391 6.5527 3.47255 6.5527C4.90381 6.5527 6.18329 5.70905 6.66792 4.44163C7.23377 2.96104 6.66526 1.38355 5.25397 0.51793H5.2553Z" fill="white"/>
<path d="M5.2553 0.51793C4.0171 -0.241746 2.41409 -0.15906 1.26509 0.72206C0.128071 1.59414 -0.301972 3.12641 0.219937 4.44809C0.707231 5.6845 1.99337 6.53074 3.41664 6.5527C3.43528 6.5527 3.45391 6.5527 3.47255 6.5527C4.90381 6.5527 6.18329 5.70905 6.66792 4.44163C7.23377 2.96104 6.66526 1.38355 5.25397 0.51793H5.2553Z" fill="url(#paint5_linear_2003_168)" fill-opacity="0.3"/>
<path d="M6.25401 10.0333C6.16481 9.68578 5.82663 9.31241 5.43919 9.31241H1.40238C1.02293 9.31241 0.539632 9.69999 0.539632 10.1367L0.534306 34.4773H6.26599L6.262 10.0656L6.25401 10.0346V10.0333Z" fill="white"/>
<path d="M6.25401 10.0333C6.16481 9.68578 5.82663 9.31241 5.43919 9.31241H1.40238C1.02293 9.31241 0.539632 9.69999 0.539632 10.1367L0.534306 34.4773H6.26599L6.262 10.0656L6.25401 10.0346V10.0333Z" fill="url(#paint6_linear_2003_168)" fill-opacity="0.3"/>
<defs>
<linearGradient id="paint0_linear_2003_168" x1="0.36413" y1="34.8588" x2="6.59486" y2="34.815" gradientUnits="userSpaceOnUse">
<stop/>
<stop offset="1" stop-color="#666666"/>
</linearGradient>
<linearGradient id="paint1_linear_2003_168" x1="0.36413" y1="34.8588" x2="6.59486" y2="34.815" gradientUnits="userSpaceOnUse">
<stop/>
<stop offset="1" stop-color="#666666"/>
</linearGradient>
<linearGradient id="paint2_linear_2003_168" x1="0.36413" y1="34.8588" x2="6.59486" y2="34.815" gradientUnits="userSpaceOnUse">
<stop/>
<stop offset="1" stop-color="#666666"/>
</linearGradient>
<linearGradient id="paint3_linear_2003_168" x1="0.36413" y1="34.8588" x2="6.59486" y2="34.815" gradientUnits="userSpaceOnUse">
<stop/>
<stop offset="1" stop-color="#666666"/>
</linearGradient>
<linearGradient id="paint4_linear_2003_168" x1="0.36413" y1="34.8588" x2="6.59486" y2="34.815" gradientUnits="userSpaceOnUse">
<stop/>
<stop offset="1" stop-color="#666666"/>
</linearGradient>
<linearGradient id="paint5_linear_2003_168" x1="0.36413" y1="34.8588" x2="6.59486" y2="34.815" gradientUnits="userSpaceOnUse">
<stop/>
<stop offset="1" stop-color="#666666"/>
</linearGradient>
<linearGradient id="paint6_linear_2003_168" x1="0.36413" y1="34.8588" x2="6.59486" y2="34.815" gradientUnits="userSpaceOnUse">
<stop/>
<stop offset="1" stop-color="#666666"/>
</linearGradient>
</defs>
</svg>
